<?xml version="1.0" encoding="UTF-8" standalone="no"?>
<svg
   version="1.1"
   id="Layer_1"
   x="0px"
   y="0px"
   width="134.731"
   viewBox="0 0 134.731 37.571999"
   enable-background="new 0 0 1024 1024"
   xml:space="preserve"
   height="37.571999"
   xmlns="http://www.w3.org/2000/svg"
   xmlns:svg="http://www.w3.org/2000/svg"><defs
   id="defs9" />









<g
   id="layer2"
   transform="matrix(0.08322444,0,0,0.08322444,27.28387,-22.40913)"><g
     id="layer1"
     transform="matrix(1.1052182,0,0,1.1052182,-84.605388,-71.995556)"><path
       fill="#000000"
       opacity="1"
       stroke="none"
       d="m 261.97491,348.68591 c 6.3017,-0.29425 12.11994,-0.59668 17.93958,-0.86996 1.55002,-0.0728 2.87036,-0.57651 4.13,-1.5177 16.2967,-12.17633 33.78946,-12.61865 51.8635,-4.80631 3.72751,1.61118 6.51721,2.07389 10.02075,-0.44784 5.30295,-3.81696 11.63577,-3.64914 17.82858,-3.1759 3.33744,0.25506 4.29337,2.76299 4.35193,5.69296 0.13428,6.71991 -1.33584,13.05664 -6.07531,17.98355 -2.84156,2.95395 -2.73902,5.31518 -1.06571,8.80322 7.34998,15.32092 7.34372,31.42832 4.9711,47.88611 -2.06641,14.33368 -6.9288,28.09619 -8.19919,42.57229 -0.82147,9.36069 -1.1123,18.63529 2.82972,27.46708 0.75878,1.69998 1.0816,3.08511 -0.52149,4.44461 -3.57993,3.03595 -6.68262,6.45608 -8.09723,12.49655 -8.70645,-11.00971 -19.15256,-7.60922 -29.32184,-6.36987 -3.95001,0.48138 -7.9725,0.42929 -11.96405,0.49566 -8.58645,0.14279 -13.47635,3.74585 -15.23373,12.17404 -2.47687,11.87867 -3.73648,23.9563 -5.13699,36.00287 -1.08506,9.33295 -2.19977,18.66248 -3.3133,28.09552 -2.96664,-0.39917 -3.16757,-2.53528 -3.86258,-4.04931 -12.55929,-27.36036 -17.60061,-55.96204 -14.63351,-86.02323 1.03073,-10.44302 3.48526,-20.63925 4.41202,-31.08713 1.90683,-21.49639 -7.13517,-34.94821 -27.8734,-40.98553 -5.06256,-1.47382 -10.14756,-1.22916 -15.33698,-0.69794 -6.58616,0.67417 -13.29213,1.69705 -19.63394,-1.43048 -3.7285,-1.83877 -6.86864,-4.27167 -7.34598,-8.75686 -0.22841,-2.14615 -1.58514,-3.11896 -3.11381,-4.19217 -3.36241,-2.36054 -4.39524,-5.45935 -2.1279,-9.05844 1.50348,-2.38657 1.63196,-4.70652 1.55708,-7.48902 -0.14917,-5.54394 2.74573,-10.18304 6.06479,-14.4491 8.13068,-10.45053 19.66849,-14.50686 32.08154,-16.42501 8.0353,-1.2417 16.14975,-2.23084 24.80635,-2.28266 z"
       id="path1"
       style="fill:#e46810;fill-opacity:1" /><path
       fill="#000000"
       opacity="1"
       stroke="none"
       d="m 722.37048,438.60342 c 9.54798,4.02835 18.73706,7.9458 27.96051,11.78077 18.07691,7.51614 32.59546,19.87219 46.07294,33.67828 2.70392,2.76984 5.58545,5.3663 9.4516,9.06235 -5.33447,-0.94293 -9.07977,-2.5575 -13.07391,-0.74353 -1.48658,0.67517 -2.45423,-1.31678 -3.33045,-2.50971 -8.50427,-11.57837 -21.65771,-14.06024 -34.30762,-17.51663 -0.4652,-0.12714 -1.08252,-0.19049 -1.4823,0.01 -6.99591,3.50064 -11.56939,-0.29358 -16.36596,-4.82892 -3.62592,-3.4284 -8.45538,-5.27844 -13.14917,-7.03998 -13.0954,-4.91452 -26.29108,-9.53747 -39.75928,-13.34255 -5.09106,-1.4383 -10.16107,-1.92951 -15.05908,0.69946 -2.13538,1.14621 -3.71814,0.69394 -5.13849,-1.26862 -3.92963,-5.42984 -9.53015,-7.89135 -15.90961,-9.47415 -12.59607,-3.12515 -25.16955,-6.30115 -38.00305,-8.31247 -4.45923,-0.69885 -8.93927,-1.24817 -13.24768,0.75208 -1.31427,0.6102 -2.61328,0.69711 -3.80694,-0.10846 -6.21821,-4.1966 -13.46418,-3.76648 -20.3216,-3.85495 -13.30273,-0.17163 -26.61963,0.4649 -39.80109,2.67303 -5.02929,0.84253 -9.71618,2.3924 -13.49218,5.96448 -1.66248,1.57278 -3.4494,2.00656 -5.45636,0.987 -5.9751,-3.03543 -12.00153,-1.93149 -18.01825,-0.27716 -16.2356,4.46411 -32.23349,9.60116 -47.43387,16.96698 -0.85654,0.41507 -1.68195,1.13266 -2.78772,0.64566 -0.67093,-0.98633 0.096,-1.57633 0.7146,-2.0163 12.45413,-8.85653 22.48083,-20.29873 33.07232,-31.12512 5.62043,-5.74506 11.51942,-11.1055 18.37327,-15.32522 5.10522,-3.14319 8.8724,-7.36893 11.71478,-12.66279 6.94672,-12.93802 14.21387,-25.62048 25.85602,-35.19763 31.36035,-25.79809 75.30554,-26.92737 109.94421,-2.63138 13.68323,9.5976 24.2038,21.9234 30.93823,37.20804 9.44605,21.43878 23.97388,37.84555 45.84613,47.80789 z"
       id="path2"
       style="fill:#e46810;fill-opacity:1" /><path
       fill="#000000"
       opacity="1"
       stroke="none"
       d="m 517.38708,667.02728 c -4.1878,16.4361 -12.56219,23.06873 -29.55969,22.88996 -12.98804,-0.1366 -25.87005,-1.85425 -38.59543,-4.49433 -6.19577,-1.28546 -8.42303,-4.1499 -8.59893,-10.34906 -1.17658,-41.46106 -0.9845,-82.93622 -0.42444,-124.39477 0.34195,-25.31379 0.19827,-50.62152 0.384,-75.93116 0.0664,-9.05264 2.32736,-12.43218 10.73248,-15.85055 13.71973,-5.57977 27.42633,-11.1622 41.6536,-15.39716 15.79074,-4.70028 25.20242,1.96558 25.29654,18.37821 0.11651,20.31912 0.0477,40.63931 0.13257,60.95868 0.17102,40.96625 0.42358,81.93213 0.56134,122.8985 0.0235,6.98059 -0.23829,13.97131 -1.58204,21.29168 M 484.8645,508.50018 c -0.0176,-5.99295 0.0853,-11.98935 -0.0873,-17.97781 -0.16614,-5.76608 -3.64532,-7.578 -8.69067,-4.82932 -2.6612,1.4498 -2.86612,3.82044 -2.86115,6.40476 0.0276,14.31662 0.0454,28.63333 0.037,42.94998 -0.0214,36.4574 -0.0537,72.91479 -0.097,109.37219 -0.004,3.32257 -0.0835,6.46125 4.69562,6.43457 4.58802,-0.0256 6.59451,-1.70507 6.89874,-6.51373 0.12598,-1.99115 0.10569,-3.99329 0.10581,-5.99042 0.003,-42.95013 -3.4e-4,-85.90021 -10e-4,-129.85022 z"
       id="path3"
       style="fill:#ffffff;fill-opacity:1" /><path
       fill="#000000"
       opacity="1"
       stroke="none"
       d="m 431.97784,641 c 0.35566,10.31488 0.05,20.138 1.12049,29.94781 0.92526,8.47931 -2.4682,10.95881 -10.69394,8.50458 -3.03015,-0.90405 -5.99207,-2.07794 -9.06275,-2.79712 -7.98166,-1.86932 -10.75595,-7.59588 -11.61099,-14.96423 -0.9426,-8.12299 -1.06344,-16.26886 -1.1279,-24.43359 -0.0921,-11.65986 -0.41855,-23.31794 -0.66916,-34.97626 -0.0286,-1.32849 -0.0198,-2.70612 -0.36239,-3.9704 -0.96897,-3.57544 -3.73316,-4.38306 -7.00992,-4.15997 -3.33359,0.22699 -3.30487,2.68133 -3.29865,5.09686 0.0489,18.99786 0.12119,37.99579 0.13617,56.99365 0.006,8.13147 -2.47754,9.77265 -9.68194,6.27478 -4.18894,-2.03375 -8.18692,-4.45715 -12.31116,-6.62866 -4.63971,-2.44299 -6.62176,-6.43365 -6.64713,-11.46167 -0.22872,-45.32196 -1.14334,-90.63983 -0.75949,-135.96603 0.0478,-5.64368 2.60489,-9.03122 7.73264,-10.89701 14.89233,-5.41888 29.22562,-12.08526 43.41141,-19.1362 12.00152,-5.9653 20.83926,-0.76062 20.94806,12.57138 0.16711,20.4824 0.88965,40.99244 -0.82828,61.44776 -0.58179,6.92724 -2.76004,13.35748 -7.66168,18.57989 -1.38306,1.47364 -3.14936,2.91321 -0.89542,4.97516 8.31442,7.60614 9.2757,17.70172 9.36157,28.00367 0.10138,12.16406 -0.0514,24.33032 -0.0895,36.9956 m -42.6616,-117.11633 c -0.003,10.82739 -0.0294,21.6549 0.0136,32.48211 0.008,2.07288 -0.58065,4.72864 2.42578,5.25885 3.13132,0.55219 6.14853,-0.0878 7.65488,-3.27075 0.75559,-1.59656 1.09799,-3.52655 1.11679,-5.31115 0.10526,-9.99335 0.0922,-19.98859 0.0351,-29.98267 -0.0176,-3.07123 -0.249,-6.65241 -4.31174,-6.5918 -3.7785,0.0563 -7.37985,1.43506 -6.93436,7.41541 z"
       id="path4"
       style="fill:#ffffff;fill-opacity:1" /><path
       fill="#000000"
       opacity="1"
       stroke="none"
       d="m 657.91522,645.41833 c -2.23089,3.32148 -4.90686,5.48896 -8.29706,6.7425 -12.95611,4.79046 -25.86718,9.70819 -38.88635,14.32086 -10.86902,3.85095 -13.73065,1.9986 -13.49353,-9.64441 0.43744,-21.48651 -0.31232,-42.95618 -0.29712,-64.43457 0.0339,-47.97711 -0.12359,-95.95438 -0.18695,-143.93155 -0.0135,-10.25323 3.38446,-13.29251 13.32483,-11.91531 13.36578,1.85174 26.42883,5.17666 39.51074,8.36395 5.61377,1.36774 8.37635,4.97339 8.57892,10.84225 0.19525,5.65647 0.20844,11.33381 -0.0398,16.98703 -0.2721,6.19657 -3.53461,8.67411 -9.55738,7.51462 -4.24389,-0.81708 -8.42181,-1.98086 -12.66992,-2.77087 -4.82495,-0.89725 -6.53223,0.48721 -6.55908,5.36416 -0.0715,12.99347 0.002,25.98768 -0.0386,38.98139 -0.0145,4.69867 1.99531,7.03815 6.91193,7.0462 4.31751,0.007 8.63117,0.59479 12.95191,0.82453 4.77709,0.25409 7.55017,2.81189 7.78021,7.4458 0.32177,6.48053 0.41687,12.9975 0.11365,19.47571 -0.23554,5.03228 -3.50464,7.92565 -8.91272,8.35949 -4.1427,0.33228 -8.32502,0.33576 -12.48462,0.24726 -4.19452,-0.0892 -6.24433,1.87084 -6.25708,5.95312 -0.0494,15.82556 -0.0416,31.65131 -0.0704,47.47699 -0.008,4.63367 2.96839,4.63702 6.16815,3.82648 4.99762,-1.26606 9.90735,-2.87879 14.90461,-4.14667 5.98553,-1.51868 8.85626,0.41547 8.78253,6.40631 -0.0833,6.7735 1.21973,13.65491 -1.27692,20.66473 z"
       id="path6"
       style="fill:#ffffff;fill-opacity:1" /><path
       fill="#000000"
       opacity="1"
       stroke="none"
       d="m 570.88013,676.78076 c -7.22241,5.2547 -15.4325,5.85858 -23.50202,6.57477 -3.70038,0.32843 -5.62671,-2.61688 -6.30444,-5.96216 -0.42383,-2.09192 -0.31732,-4.30676 -0.31873,-6.46655 -0.0396,-61.97327 -0.0605,-123.94647 -0.0977,-185.91974 -10e-4,-2.16208 0.0834,-4.36108 -0.26856,-6.47693 -0.46161,-2.7745 -1.84051,-4.31711 -5.20038,-3.79736 -9.07806,1.40448 -11.10223,-0.11414 -11.74676,-9.22943 -0.45642,-6.45453 -0.34216,-12.95896 -0.26605,-19.43857 0.0607,-5.1709 2.75525,-8.43329 7.90924,-9.41239 17.10107,-3.24878 34.34539,-4.14065 51.67486,-2.65774 5.48444,0.46933 8.25769,3.7128 8.42932,9.36706 0.19196,6.3238 0.21009,12.66675 -0.053,18.98652 -0.25849,6.21176 -4.03638,9.57455 -9.94636,9.4158 -6.48852,-0.17432 -7.04858,0.39749 -7.044,6.98675 0.0425,61.14014 0.0831,122.28028 0.10956,183.42041 0.002,4.99054 0.2641,10.06128 -3.375,14.60956 z"
       id="path7"
       style="fill:#ffffff;fill-opacity:1" /><path
       fill="#000000"
       opacity="1"
       stroke="none"
       d="m 774.44281,486.43027 c 6.54645,1.97979 8.94519,6.1828 8.83942,12.54818 -0.19367,11.65711 -0.0226,23.32093 0.0514,34.98157 0.0331,5.211 5.24762,9.5307 10.28253,8.68195 2.66248,-0.44885 2.276,-2.52374 2.27814,-4.26996 0.0124,-10.16156 -0.0851,-20.32318 -0.0681,-30.48462 0.0137,-8.16257 2.48017,-9.73892 9.66877,-6.22946 5.08575,2.48288 10.10131,5.11035 15.19793,7.57013 5.18018,2.50006 7.63416,6.3721 7.61804,12.28421 -0.0848,31.151 0.0403,62.30261 0.0548,93.45398 0.003,6.31366 -2.77881,8.56103 -9.13226,7.85174 -4.95654,-0.55316 -9.95239,-0.76111 -14.90479,-1.34308 -5.87048,-0.68994 -8.22778,-3.45275 -8.23352,-9.14068 -0.012,-11.81659 -0.0142,-23.6333 -0.0788,-35.44965 -0.0327,-5.98553 -3.13294,-8.82995 -9.04163,-8.36004 -3.5072,0.27899 -3.55969,2.93902 -3.56006,5.5122 -0.002,11.82257 -0.10803,23.64069 0.53321,35.46161 0.52966,9.76471 -2.28705,12.47052 -11.99128,12.82935 -4.31774,0.15967 -8.61902,0.80096 -12.9364,0.92877 -5.42077,0.1604 -7.95086,-2.24756 -8.16443,-7.74261 -0.1745,-4.49042 0.002,-8.9939 -0.007,-13.49146 -0.0695,-33.98322 -0.17883,-67.96649 -0.18237,-101.94971 -4.3e-4,-4.48898 -0.92609,-8.94235 -0.21552,-13.461 0.85162,-5.41595 3.12402,-7.25851 8.60907,-5.71414 5.11054,1.43903 10.02789,3.56415 15.38318,5.53272 z"
       id="path8"
       style="fill:#ffffff;fill-opacity:1" /><path
       fill="#000000"
       opacity="1"
       stroke="none"
       d="m 698.24402,538 c 0.0358,21.6532 0.0701,42.8064 0.10687,63.9596 0.006,3.74023 -0.2041,7.8161 4.89569,8.32812 4.54804,0.45673 7.34339,-2.91913 7.29212,-8.65558 -0.0715,-7.98901 -0.52112,-15.97577 -0.53107,-23.96387 -0.008,-6.81244 2.9101,-9.66693 9.74774,-9.85363 4.82617,-0.13172 9.6637,-0.12629 14.4884,0.0415 5.65088,0.19635 7.81818,2.32471 7.89411,8.06726 0.14526,10.99103 0.2417,21.98914 0.008,32.97687 -0.21741,10.23419 -6.86273,17.90546 -17.4101,20.28845 -12.01587,2.71472 -23.85778,6.0365 -35.6477,9.57245 -1.59326,0.4779 -3.18299,1.00592 -4.81085,1.3241 -10.58802,2.06945 -18.00098,-3.76374 -18.6167,-14.54401 -1.19751,-20.96643 -0.74183,-41.95569 -0.83972,-62.93524 -0.14307,-30.64667 -0.16804,-61.29444 -0.0834,-91.94132 0.0342,-12.40085 8.59711,-18.81979 20.67236,-15.83688 1.93567,0.47815 3.82355,1.15494 5.7251,1.76596 11.2489,3.61429 22.34674,7.64572 33.32617,12.01059 11.42841,4.5434 16.67169,13.22321 16.83289,25.22281 0.13623,10.14938 0.30023,20.30527 0.0767,30.44992 -0.13208,5.98938 -2.57227,7.63605 -8.30329,6.67981 -4.75262,-0.79297 -9.54077,-1.3869 -14.27545,-2.271 -6.80255,-1.27014 -8.79229,-3.59338 -8.91583,-10.44629 -0.1441,-7.99295 -0.15576,-15.98916 -0.13666,-23.98376 0.006,-2.62781 -0.53387,-4.97324 -2.53381,-6.77911 -1.81256,-1.63672 -3.90881,-2.70026 -6.38525,-1.83893 -2.54377,0.88476 -2.64594,3.17267 -2.6438,5.39194 0.0147,15.49008 0.0428,30.98019 0.0673,46.97024 z"
       id="path5"
       style="fill:#ffffff;fill-opacity:1" /><path
       fill="#000000"
       opacity="1"
       stroke="none"
       d="m 301.17456,600.79944 c -5.99115,-6.18006 -8.45361,-12.42127 -6.88168,-21.35181 3.59613,-20.42993 5.69189,-41.1239 8.39819,-61.71045 0.97327,-7.40344 2.98172,-9.42032 10.39221,-10.20947 6.61389,-0.70432 13.2403,-1.29007 19.85752,-1.96426 5.98608,-0.60993 9.22558,1.4057 10.25802,7.39773 1.04178,6.0462 1.50427,12.20319 2.00864,18.3291 2.44256,29.66675 4.79288,59.34113 7.2272,89.00855 0.51621,6.2912 1.51612,12.55255 1.8021,18.84991 0.28195,6.20856 -2.25669,7.55103 -7.6135,4.18219 -4.08081,-2.56634 -7.87222,-5.58825 -11.86243,-8.30462 -4.71792,-3.2118 -7.43985,-7.52472 -7.72857,-13.27936 -0.12513,-2.49335 -0.26819,-4.987 -0.32474,-7.4823 -0.18204,-8.02948 -1.47961,-9.6604 -9.77622,-12.06305 -1.57745,1.35889 -0.97317,3.37048 -1.3796,5.06933 -0.41513,1.73511 -0.0607,3.9516 -2.30912,4.54377 -2.11132,0.55615 -3.30801,-1.21936 -4.52343,-2.5387 -2.48191,-2.69415 -4.87803,-5.46722 -7.54459,-8.47656 m 22.75934,-56.34448 c -0.409,-2.34113 0.33682,-4.89667 -1.0415,-7.27491 -1.47367,0.89667 -1.5572,2.08344 -1.68735,3.22742 -1.22135,10.73328 -2.80051,21.43433 -2.98743,32.26166 -0.0199,1.15277 -0.0443,2.41876 0.38541,3.4425 0.923,2.19904 2.42178,4.50202 5.00549,4.12049 2.5607,-0.37818 2.12454,-3.08155 2.03256,-4.99402 -0.47946,-9.96845 -1.07165,-19.93146 -1.70718,-30.78314 z"
       id="path9"
       style="fill:#ffffff;fill-opacity:1" /></g></g></svg>
