<?xml version="1.0" encoding="UTF-8" standalone="no"?>
<!-- Created with Inkscape (http://www.inkscape.org/) -->

<svg
   version="1.1"
   id="svg1"
   width="512"
   height="512"
   viewBox="0 0 512 512"
   sodipodi:docname="Logo svg.svg"
   inkscape:version="1.4.2 (ebf0e94, 2025-05-08)"
   xmlns:inkscape="http://www.inkscape.org/namespaces/inkscape"
   xmlns:sodipodi="http://sodipodi.sourceforge.net/DTD/sodipodi-0.dtd"
   xmlns="http://www.w3.org/2000/svg"
   xmlns:svg="http://www.w3.org/2000/svg">
  <sodipodi:namedview
     id="namedview1"
     pagecolor="#ffffff"
     bordercolor="#000000"
     borderopacity="0.25"
     inkscape:showpageshadow="2"
     inkscape:pageopacity="0.0"
     inkscape:pagecheckerboard="0"
     inkscape:deskcolor="#d1d1d1"
     inkscape:zoom="0.98242188"
     inkscape:cx="256"
     inkscape:cy="256"
     inkscape:window-width="1366"
     inkscape:window-height="705"
     inkscape:window-x="-8"
     inkscape:window-y="-8"
     inkscape:window-maximized="1"
     inkscape:current-layer="svg1" />
  <defs
     id="defs1" />
  <g
     id="g1"
     style="opacity:1;fill:#087b7c;fill-opacity:1">
    <path
       style="fill:#087b7c;fill-opacity:1"
       d="m 341,433.93633 c -14.67849,-1.70548 -18.19916,-2.49125 -27.33158,-6.10014 -5.40738,-2.13685 -12.04488,-5.00674 -14.75,-6.37753 C 294.29384,419.11521 294,419.07983 294,420.86652 c 0,2.30968 -3.55516,3.44192 -6.26078,1.99391 -1.48359,-0.79399 -1.84386,-1.83838 -1.53798,-4.45847 0.39883,-3.41626 0.38417,-3.42944 -9.40628,-8.45845 -7.52966,-3.86773 -10.21068,-4.80931 -11.55034,-4.0565 -1.2853,0.72225 -2.27118,0.50681 -3.74462,-0.8183 -3.39333,-3.05171 -11.56351,-5.24089 -21.62564,-5.79451 l -9.62565,-0.52962 -2.27874,3.08216 c -1.27437,1.72369 -3.60766,3.37405 -5.29383,3.74439 -1.6583,0.36423 -4.17173,1.73472 -5.5854,3.04555 -1.41367,1.31083 -3.2724,2.38332 -4.13052,2.38332 -0.85812,0 -2.09272,0.5325 -2.74355,1.18333 -1.72469,1.72469 -2.56286,0.33205 -1.26251,-2.09768 1.50868,-2.81899 -0.74349,-2.8258 -4.3193,-0.0131 C 203.18569,411.2125 202,411.87594 202,411.5469 c 0,-0.32904 -1.33452,0.0918 -2.96559,0.93531 -3.22824,1.66938 -3.20133,4.01265 0.058,5.04711 3.33517,1.05854 2.08357,2.03418 -4.3013,3.35296 -3.4149,0.70533 -7.3524,1.85372 -8.75,2.55196 -3.39312,1.69522 -14.86425,1.98893 -13.21365,0.33833 2.36243,-2.36243 0.96709,-2.77016 -9.07743,-2.65248 -9.16233,0.10735 -9.77249,0.22173 -5.75,1.07794 11.83762,2.51971 11.96877,2.58755 5.21676,2.69862 -4.84932,0.0798 -7.40058,-0.46285 -11.17923,-2.37763 -2.6928,-1.36455 -5.22237,-3.00907 -5.62127,-3.65451 -0.49248,-0.79685 -0.27446,-0.91168 0.67923,-0.35777 0.77248,0.44867 0.39201,-0.2983 -0.84549,-1.65994 -3.13859,-3.45343 -2.81932,-3.98262 1.35142,-2.23998 1.98078,0.82762 4.93528,1.36716 6.56557,1.19897 l 2.96416,-0.30579 -4.31558,-2.19859 c -2.37356,-1.20922 -6.3367,-2.78422 -8.80697,-3.5 -4.81085,-1.39397 -6.56635,-4.35014 -3.57683,-6.02317 1.43755,-0.80449 1.2219,-1.48724 -1.76786,-5.59725 -4.81751,-6.62258 -6.32163,-9.99044 -6.91231,-15.47719 -0.35784,-3.3239 -0.0929,-5.21967 0.86316,-6.1757 0.75872,-0.75872 1.11577,-2.06675 0.79344,-2.90674 -0.4727,-1.23182 -0.95089,-1.29939 -2.47217,-0.34934 -1.42873,0.89226 -2.16686,0.89715 -3.04385,0.0202 C 125.96582,371.36582 127.66153,369 130.96862,369 132.63588,369 134,368.6051 134,368.12244 c 0,-1.31134 -2.58498,-3.20413 -3.34201,-2.4471 C 130.2961,366.03724 130,364.25989 130,361.72568 c 0,-4.47547 -1.51818,-7.37341 -2.17432,-4.15039 -0.26234,1.28865 -0.79716,1.09656 -2.74999,-0.98776 C 122.74432,354.09921 122.73004,354 124.70324,354 c 1.12853,0 2.58603,-0.64362 3.23888,-1.43026 0.9479,-1.14215 0.78437,-1.64575 -0.81181,-2.5 C 124.1809,348.49126 123,348.75723 123,351 c 0,2.16376 -0.4438,2.29496 -3.5,1.03472 -1.90893,-0.78715 -1.88616,-0.8757 0.5,-1.94471 2.47706,-1.10974 2.47248,-1.11659 -0.5,-0.74644 -1.65,0.20546 -3.7926,0.71232 -4.76134,1.12634 -1.26633,0.54121 -1.61434,0.37018 -1.23829,-0.60857 0.40844,-1.06304 -0.57498,-1.28542 -4.48805,-1.01487 -2.75611,0.19056 -4.78492,0.71245 -4.50847,1.15976 0.80345,1.30001 -0.5768,3.96244 -2.6215,5.05673 -3.737919,2.00048 -7.873784,-2.34193 -5.84358,-6.1354 0.839406,-1.56845 0.699009,-1.92851 -0.753586,-1.93268 -3.291647,-0.009 -9.09373,-4.44859 -12.70531,-9.72077 C 80.610943,334.39987 79,331.78849 79,331.47105 c 0,-0.31744 -1.125,-2.23274 -2.5,-4.25624 -1.375,-2.02349 -2.465765,-4.58712 -2.423922,-5.69694 0.0534,-1.41623 0.503324,-0.97431 1.509028,1.48213 1.155564,2.82248 1.330693,2.96753 0.904697,0.74931 -0.290539,-1.51288 -0.807451,-4.78766 -1.148694,-7.2773 -0.341242,-2.48964 -1.003572,-4.7634 -1.471843,-5.05281 -0.468271,-0.28941 -0.192449,-2.10329 0.612938,-4.03085 0.805387,-1.92756 1.755721,-5.7012 2.111854,-8.38587 0.356134,-2.68466 1.182194,-5.08638 1.83569,-5.33715 0.910572,-0.34942 0.900836,0.93839 -0.04167,5.512 -0.676416,3.28237 -1.45931,6.56592 -1.739765,7.29677 -0.280455,0.73086 0.287589,1.53738 1.26232,1.79228 1.583164,0.41401 1.900178,-0.8824 2.971432,-12.15147 1.10937,-11.67002 2.072607,-15.41296 6.38156,-24.79745 0.55117,-1.2004 0.70967,-2.94467 0.352221,-3.87617 -0.598828,-1.56052 -0.43865,-1.55521 2.038047,0.0676 l 2.687953,1.76121 -2.029471,-3.38504 C 89.196166,264.02327 87.76925,262.6125 87.141452,262.75 86.513653,262.8875 86,261.91918 86,260.59818 c 0,-1.78157 -1.597912,-3.58924 -6.187741,-7 C 76.409001,251.06918 74.174659,249 74.847055,249 c 0.672396,0 -0.385321,-1.41172 -2.350481,-3.13715 -1.965161,-1.72544 -4.679078,-5.0245 -6.030927,-7.33126 -1.351849,-2.30675 -3.809649,-5.3985 -5.461777,-6.87056 -3.239393,-2.88631 -3.297763,-3.17778 -3.036152,-15.16103 0.133364,-6.10881 0.760948,-9.29615 2.654768,-13.4829 1.496664,-3.30874 2.063239,-5.62186 1.428815,-5.83333 -1.904184,-0.63473 -1.10226,-1.95615 2.464077,-4.06034 1.933458,-1.14077 3.958189,-3.32272 4.499401,-4.84878 1.376449,-3.88117 2.553199,-5.77368 3.594207,-5.78039 0.998891,-0.006 4.970004,-2.69614 9.723702,-6.58604 C 84.07471,174.48274 86.4,172.80893 87.5,172.18863 c 1.664954,-0.93888 1.717741,-1.13291 0.3151,-1.15822 -0.926696,-0.0167 -2.901605,0.43218 -4.388689,0.99757 -4.812606,1.82975 -3.773018,0.18135 1.604043,-2.54341 2.876127,-1.45745 6.036061,-2.43893 7.022077,-2.18108 0.986015,0.25784 3.188442,-0.37996 4.894282,-1.41734 1.705839,-1.03738 4.103147,-1.86813 5.327357,-1.84611 2.07847,0.0374 2.04377,0.1388 -0.52417,1.53193 -1.5125,0.82055 -2.75,1.69289 -2.75,1.93853 0,0.70232 5.16069,-1.76561 8.88955,-4.25114 1.86425,-1.24265 4.11425,-2.26625 5,-2.27467 1.27726,-0.0121 1.33148,-0.19211 0.26206,-0.86983 -0.74162,-0.46998 -1.18546,-1.70059 -0.98631,-2.73469 0.50458,-2.62004 3.35103,-2.40465 3.26846,0.24732 -0.057,1.83169 0.29056,2.01677 2.5,1.33109 1.41143,-0.43802 4.88732,-1.51302 7.72419,-2.3889 4.00382,-1.23616 5.61852,-2.37309 7.21628,-5.08109 1.13207,-1.91872 2.42778,-3.48859 2.87934,-3.48859 1.71754,0 1.20947,-6.44491 -0.84219,-10.68306 -1.17718,-2.43173 -1.87072,-4.69093 -1.5412,-5.02045 0.32951,-0.32952 1.21499,0.8656 1.96772,2.65581 2.19254,5.21452 2.79039,1.17901 1.05696,-7.13456 -1.40244,-6.72616 -1.38844,-7.34927 0.19113,-8.50428 1.36613,-0.99894 5.41401,-8.39433 5.41401,-9.89128 0,-0.19768 -0.6801,-0.0984 -1.51134,0.22055 -1.07051,0.41079 -1.33525,0.12106 -0.90762,-0.99332 0.33205,-0.8653 1.45202,-1.84252 2.48884,-2.17159 1.03681,-0.32907 3.80774,-2.21439 6.15761,-4.1896 5.1953,-4.366938 10.34277,-6.707804 18.27251,-8.309601 3.3,-0.666596 6.225,-1.565296 6.5,-1.997111 0.61745,-0.969551 17.30666,0.642288 21.73436,2.099099 1.7789,0.585297 4.04267,2.091771 5.0306,3.34772 0.98793,1.255949 3.49273,2.897003 5.56621,3.646783 2.71794,0.98282 3.3103,1.52448 2.12272,1.94106 -2.65082,0.92986 5.48243,5.96686 10.63814,6.5883 5.11607,0.61667 5.88873,1.12345 3.87901,2.54424 -1.19413,0.84419 -1.12623,0.92808 0.36075,0.44562 1.00748,-0.32688 2.01998,-0.59433 2.25,-0.59433 0.23001,0 0.41821,-0.675 0.41821,-1.5 0,-0.825 0.49446,-1.5 1.09879,-1.5 0.60433,0 2.40433,-1.39759 4,-3.10576 1.59567,-1.70816 2.90121,-2.76342 2.90121,-2.34501 0,0.41841 0.97735,-0.0965 2.17189,-1.14424 1.35739,-1.19058 1.84793,-1.34246 1.30805,-0.40499 -0.74484,1.29333 -0.63074,1.31091 0.8281,0.12756 C 238.23862,101.37271 239,99.920585 239,98.900608 c 0,-1.019976 1.2375,-2.629589 2.75,-3.576918 3.20885,-2.009808 9.64487,-8.594006 9.11386,-9.32369 -0.20012,-0.275 1.21114,-1.258446 3.13614,-2.185436 1.925,-0.92699 4.23089,-2.408595 5.12419,-3.292455 2.44847,-2.422577 8.2476,-2.961449 16.04229,-1.490696 5.87443,1.108425 7.13311,1.101876 7.83931,-0.04078 0.70828,-1.14602 1.51526,-1.138785 5.10448,0.04577 2.34476,0.77384 5.48163,2.432223 6.97082,3.685295 C 296.57028,83.97476 298.25178,85 298.81776,85 c 0.56598,0 3.09241,1.575 5.6143,3.5 2.52188,1.925 4.75876,3.5 4.97084,3.5 2.2322,0 18.68285,19.1103 21.49046,24.96491 1.57727,3.28903 3.97081,6.37474 6.01157,7.75 4.74079,3.19482 5.75808,2.8493 1.86154,-0.63227 -1.7958,-1.60454 -2.98271,-3.19973 -2.63758,-3.54487 0.34514,-0.34513 1.91983,0.6524 3.49932,2.21674 1.94162,1.923 4.80864,3.27302 8.85159,4.16802 3.28889,0.72806 6.4562,1.97526 7.03846,2.77155 1.73427,2.37176 8.90599,-0.35688 10.93967,-4.16222 5.33007,-9.97346 9.92257,-13.09795 12.70446,-8.64344 0.98899,1.58362 1.64862,1.72482 4.08692,0.87483 4.51466,-1.57382 11.08819,-0.16268 19.55934,4.19882 12.79591,6.58818 18.11337,14.05582 18.1847,25.53793 0.0205,3.3 0.36788,6.50954 0.77196,7.13231 0.40408,0.62277 2.87324,1.85529 5.48702,2.73893 4.68782,1.5848 12.74767,6.13728 12.74767,7.20032 0,0.30056 -0.50838,0.23228 -1.12973,-0.15174 -0.68307,-0.42216 -0.95402,-0.14896 -0.68531,0.69098 0.24443,0.76406 1.42781,1.83341 2.62973,2.37633 1.20192,0.54292 2.18531,1.44871 2.18531,2.01287 0,0.56416 0.93986,1.46995 2.08857,2.01287 4.02394,1.90185 9.58808,19.79639 9.73379,31.30437 0.0397,3.1391 -0.91383,8.21729 -2.32787,12.39685 -2.44051,7.21352 -10.12687,21.40157 -13.63322,25.16519 -1.06627,1.14451 -2.19504,3.10238 -2.50838,4.35082 -0.31334,1.24845 -0.95937,2.2699 -1.43562,2.2699 -0.47625,0 -1.62022,1.4625 -2.54216,3.25 -0.92193,1.7875 -3.18349,5.22721 -5.02568,7.6438 -1.84219,2.41659 -3.34943,5.15305 -3.34943,6.08102 0,0.92797 -1.125,2.2893 -2.5,3.02518 -2.2132,1.18447 -2.49748,1.97822 -2.47804,6.91898 0.0213,5.39848 2.00132,11.28667 5.19808,15.45763 1.19602,1.56051 1.80396,1.68091 3.60913,0.71482 4.20743,-2.25176 7.99491,1.7103 5.75024,6.0153 -1.10965,2.12816 -0.89287,2.89175 1.95696,6.89327 5.39895,7.5808 6.78171,11.09015 6.72723,17.07322 -0.0962,10.55911 -7.96552,21.33195 -20.86189,28.55907 C 414.91742,352.26608 414.5,352.71168 414.5,356 c 0,3.13336 -0.3091,3.53518 -2.95069,3.83579 -1.88472,0.21448 -3.3827,-0.25504 -4.14655,-1.29966 -1.06884,-1.46173 -1.40303,-1.33808 -3.14636,1.16422 -3.60767,5.17828 -4.35561,9.18866 -3.64309,19.53392 0.58781,8.53465 0.90227,9.76573 2.49446,9.76573 1.7263,0 3.89223,2.70604 3.89223,4.86283 0,1.96626 -3.30347,4.27798 -5.39376,3.77447 -1.80459,-0.4347 -2.64393,0.62331 -5.86053,7.38734 -6.69985,14.08878 -21.07712,25.59986 -34.74571,27.81896 -9.6642,1.56898 -13.90623,1.80075 -20,1.09273 z M 201.38398,347.77768 c 5.19147,-1.5417 12.68514,-8.90474 14.53097,-14.27768 1.4658,-4.26672 2.90759,-50.5 1.57485,-50.5 -0.38353,0 -3.80064,1.63074 -7.59357,3.62387 L 203,290.24774 v 17.90825 c 0,21.01189 -0.7585,24.0095 -6.70379,26.49361 -3.70811,1.54934 -8.08406,1.18641 -13.54621,-1.12351 -1.56346,-0.66118 -1.75,-0.0447 -1.75,5.78359 v 6.52365 l 4.25,1.50439 c 5.29832,1.87546 10.79533,2.02536 16.13398,0.43996 z M 166.5,327.88094 c 6.08513,-1.68545 9.50767,-4.65602 12.23956,-10.62323 5.83669,-12.74902 -0.005,-27.85115 -13.25505,-34.26521 -4.05682,-1.96387 -5.14904,-2.10998 -8.42835,-1.12747 -4.84687,1.45216 -12.52735,8.22148 -15.32479,13.50676 -3.09038,5.83875 -3.08504,17.42745 0.0107,23.27744 4.1616,7.86406 15.04454,11.92209 24.75791,9.23171 z m -10.55003,-14.72037 c -4.29452,-3.47749 -2.00051,-16.05759 3.23091,-17.71798 1.69781,-0.53886 2.7195,-0.0512 4.45655,2.12731 4.47191,5.6083 3.90105,15.51483 -0.96931,16.82123 -3.38044,0.90675 -4.28281,0.74146 -6.71815,-1.23056 z M 292.5,326.99063 c 2.2,-0.64134 6.57087,-2.30559 9.71305,-3.69833 l 5.71306,-2.53227 3.01154,2.53405 c 5.04832,4.24789 9.4428,5.19794 24.06235,5.20209 12.12442,0.003 13.93294,-0.22745 17.74888,-2.26592 5.30027,-2.83141 8.91344,-8.17669 10.23402,-15.1401 C 363.54231,308.14043 364,295.84672 364,283.77079 v -21.95623 l -7.25,3.98404 -7.25,3.98404 -0.5,20.57557 c -0.62029,25.52568 0.22728,24.14179 -14.78571,24.14179 -5.89286,0 -12.00875,-0.36037 -13.59086,-0.80082 l -2.87657,-0.80082 2.12657,-2.26363 C 321.04304,309.38973 322,307.3145 322,306.0231 c 0,-5.75897 -12.19953,-19.45443 -20.66518,-23.19919 -3.5571,-1.57347 -6.12797,-1.94828 -11.34256,-1.65363 -5.77441,0.32628 -7.55081,0.91742 -12.36759,4.11558 L 272,289.02043 v 6.61176 6.61175 l 2.25,-1.65122 c 4.13103,-3.03166 12.21781,-6.57307 15.03212,-6.58295 1.53016,-0.005 4.23016,0.59873 6,1.34246 3.97544,1.67057 9.87812,7.58684 9.49859,9.52047 -0.15439,0.78661 -2.91751,2.88967 -6.14027,4.67348 C 291.61879,313.43269 282.5782,315 267.18166,315 250.88883,315 252,317.01691 252,287.4433 c 0,-18.89433 -0.28377,-24.44059 -1.25,-24.43138 -0.6875,0.007 -3.95,1.51363 -7.25,3.34905 l -6,3.33712 -0.27009,21.2195 c -0.15697,12.33242 0.16089,22.82003 0.75895,25.04105 1.33236,4.94799 6.28767,9.73271 11.98755,11.57486 5.41589,1.75038 35.99624,1.35997 42.52359,-0.54287 z M 398,296 c 0,-25.73969 -0.27501,-32.99738 -1.25,-32.98808 -0.6875,0.007 -3.95,1.51379 -7.25,3.3494 l -6,3.33747 -0.26488,29.6506 L 382.97024,329 H 390.48512 398 Z M 91.683114,271.8125 c -0.319226,-0.79773 -0.556183,-0.56078 -0.604167,0.60417 -0.04342,1.05416 0.192928,1.64479 0.52522,1.3125 0.332291,-0.33229 0.367818,-1.1948 0.07895,-1.91667 z M 156.25,266.80232 C 160.33131,262.08226 156.97389,255 150.65499,255 c -5.26952,0 -8.35783,4.68538 -6.53498,9.91443 1.77513,5.09213 8.45978,6.13252 12.12999,1.88789 z m 14.52824,2.12514 C 178.2653,266.31746 176.28806,255 168.34501,255 c -7.88978,0 -10.28639,11.06921 -3.02964,13.99302 1.20155,0.48411 2.22998,0.90873 2.28541,0.94359 0.0554,0.0349 1.48528,-0.41925 3.17746,-1.00915 z m 32.4256,-42.29946 c 6.10463,-2.92137 10.17482,-6.99532 12.61632,-12.628 1.98634,-4.58261 2.8946,-31.67403 1.26406,-37.70453 -1.40443,-5.19429 -5.43792,-10.12748 -9.75541,-11.93144 -5.24672,-2.19222 -14.2954,-1.74357 -19.42153,0.96296 -12.18842,6.43532 -13.93721,28.73848 -2.97653,37.96128 3.84323,3.23387 9.25722,5.02534 13.64055,4.51361 4.31101,-0.50328 4.47727,1.13802 0.45789,4.5201 -3.85536,3.24408 -11.10441,4.76671 -18.14499,3.81128 -10.94356,-1.48508 -15.91779,-6.86585 -15.83875,-17.13326 0.0233,-3.025 0.64456,-7.1875 1.3806,-9.25 0.73605,-2.0625 1.01635,-3.75 0.62289,-3.75 -0.39346,0 -3.28838,0.51673 -6.43317,1.1483 -6.66346,1.33821 -8.18517,3.3366 -9.21538,12.10213 -1.44715,12.313 5.21114,23.33789 17.09961,28.31378 5.46696,2.28817 7.02167,2.47939 17.5,2.15232 10.03131,-0.31312 12.22845,-0.70757 17.20384,-3.08853 z m -6.97939,-31.74067 C 189.39702,192.3617 191.2579,176 198.37258,176 202.17546,176 203,177.88581 203,186.58342 c 0,7.78659 -0.11352,8.20513 -2.34092,8.63092 -1.28751,0.24612 -3.28309,0.099 -4.43463,-0.32701 z m 66.46118,32.67873 c 5.58681,-2.60119 9.79183,-7.70337 10.89508,-13.21959 l 0.62416,-3.1208 13.14756,-0.41671 c 9.46994,-0.30014 13.99009,-0.86391 16.15961,-2.01546 2.76801,-1.46922 3.25412,-1.46569 6,0.0436 4.43519,2.43778 24.71146,2.36039 29.23572,-0.11159 3.05207,-1.6676 3.40221,-1.67332 5.8112,-0.0949 3.36973,2.20793 20.1297,3.08852 26.40479,1.38734 6.44211,-1.74647 11.46886,-7.1301 12.90119,-13.81715 1.1203,-5.23032 1.62813,-31.20078 0.6101,-31.20078 -0.28873,0 -3.66373,1.58066 -7.5,3.51257 L 370,172.02514 v 10.2963 C 370,195.94891 369.59189,196.5 359.5,196.5 349.14849,196.5 349,196.26312 349,179.75026 v -12.86748 l -6.91323,3.78071 -6.91323,3.7807 -0.33677,9.72995 c -0.21619,6.2461 -0.80224,10.19469 -1.63677,11.02791 -1.80889,1.80604 -15.34967,1.74855 -17.54631,-0.0745 C 314.28529,193.99188 314,191.70605 314,181.87756 314,175.3449 313.72831,170 313.39623,170 c -0.33207,0 -3.70707,1.63074 -7.5,3.62387 L 299,177.24774 v 8.35308 c 0,10.99705 -0.77644,11.59068 -14.63191,11.18682 L 274.5,196.5 274,185.5 c -0.59829,-13.16236 -2.22215,-16.82223 -8.98477,-20.25 -5.16327,-2.6171 -14.20487,-3.03775 -19.29735,-0.89777 -11.18056,4.69832 -16.01931,21.29594 -9.77614,33.53357 3.56842,6.99469 10.02339,10.53994 22.55826,12.38964 1.81899,0.26842 1.71282,0.58608 -1.17308,3.50985 -2.66075,2.69566 -3.91725,3.21471 -7.78212,3.21471 -2.53497,0 -6.16958,-0.65204 -8.07692,-1.44897 L 238,214.10205 v 6.49725 c 0,6.3738 0.0617,6.52409 3.25,7.90983 5.31332,2.30939 15.40348,1.86547 21.43563,-0.94307 z m -10.89099,-33.11464 c -3.35432,-1.82078 -4.93118,-6.91213 -3.7554,-12.1254 C 248.97327,178.18466 251.21694,176 254.53614,176 258.63639,176 260,178.95209 260,187.82874 V 196 l -2.75,-0.04 c -1.5125,-0.022 -3.96741,-0.70086 -5.45536,-1.50854 z M 195,154 c 4.51262,-4.51262 1.12514,-13 -5.18856,-13 -6.21559,0 -9.41575,8.37405 -5.06351,13.25 2.14094,2.39855 7.74006,2.26201 10.25207,-0.25 z m 17.08922,0.12884 c 1.67244,-1.35426 2.31078,-2.9092 2.31078,-5.62884 0,-6.87217 -7.11398,-9.87693 -11.94545,-5.04545 -6.78373,6.78372 2.17793,16.71239 9.63467,10.67429 z M 313.40499,98.895012 c -1.04775,-1.157743 -1.76385,-2.321157 -1.59134,-2.585365 0.4159,-0.636987 -7.03139,-6.250477 -8.31365,-6.266514 -0.55,-0.0069 -0.325,0.414188 0.5,0.935705 0.825,0.521517 1.5,1.443492 1.5,2.048833 0,0.934167 8.21219,7.873529 9.40499,7.947289 0.22274,0.0138 -0.45226,-0.9222 -1.5,-2.079948 z m -16.0408,330.611678 c -0.34636,-0.90262 -0.15025,-2.12063 0.43581,-2.70669 1.52361,-1.52361 4.41041,-0.13109 4.01242,1.93549 -0.4433,2.30188 -3.64766,2.85743 -4.44823,0.7712 z M 282.03635,428.5438 C 280.53721,426.73744 281.49994,425 284,425 c 1.03508,0 2.17226,0.46971 2.52707,1.0438 C 287.19015,427.11669 285.3484,430 284,430 c -0.41531,0 -1.29895,-0.65529 -1.96365,-1.4562 z M 271,419.58333 C 271,418.7125 271.7125,418 272.58333,418 c 0.87084,0 1.40521,0.53437 1.1875,1.1875 C 273.15276,421.04172 271,421.34926 271,419.58333 Z m 7.25,-3.61449 c -1.2375,-0.49742 -2.25,-1.10176 -2.25,-1.343 0,-0.74433 3.99816,0.56217 4.5746,1.49487 0.636,1.02907 0.60905,1.02731 -2.3246,-0.15187 z m -6.5,-5.27157 c -2.0625,-0.5775 -3.75,-1.40651 -3.75,-1.84225 0,-0.43574 -0.7875,-0.5474 -1.75,-0.24813 -1.63686,0.50894 -1.63926,0.47272 -0.0371,-0.56031 1.84264,-1.18809 7.88118,0.67858 9.22405,2.85139 0.3746,0.60611 0.54204,1.04516 0.37208,0.97566 -0.16996,-0.0695 -1.99652,-0.59887 -4.05902,-1.17636 z M 136,405.15301 c 0,-0.46584 -0.9,-1.8847 -2,-3.15301 -2.03474,-2.34608 -2.71761,-6 -1.12132,-6 0.85274,0 2.32431,3.14901 3.62166,7.75 0.34894,1.2375 0.37911,2.25 0.067,2.25 C 136.25532,406 136,405.61885 136,405.15301 Z m 276.53262,-7.10022 C 411.65338,396.63015 412.77461,395 414.63234,395 c 0.87615,0 1.37805,0.70256 1.19098,1.66713 -0.38952,2.00847 -2.38616,2.84922 -3.2907,1.38566 z M 115.16879,390.83896 C 115.35096,389.55253 116.175,388.5 117,388.5 c 2.16873,0 1.86998,3.90136 -0.33121,4.32527 -1.42006,0.27348 -1.75684,-0.17249 -1.5,-1.98631 z m 297.46705,-4.30065 c -4.9779,-4.61336 -5.77438,-9.55495 -2.59772,-16.11706 2.16563,-4.47359 5.99013,-6.83751 10.11694,-6.25324 2.08714,0.29549 2.31594,0.79499 2.08114,4.5434 l -0.26381,4.21141 2.82001,-1.61846 c 3.60332,-2.06802 7.41239,-1.15874 9.20903,2.19832 1.20959,2.26013 1.12343,3.06062 -0.74291,6.90212 -3.79791,7.81723 -15.15972,11.19641 -20.62268,6.13351 z m -290.45539,-2.18034 c -1.40208,-2.50538 -0.22242,-5.30933 2.52368,-5.99856 3.36153,-0.84369 5.76546,1.63348 4.90647,5.05595 -0.51305,2.04415 -1.26168,2.58464 -3.57996,2.58464 -1.6785,0 -3.32399,-0.70177 -3.85019,-1.64203 z M 108.54653,380.75 c -0.21489,-0.6875 -0.67116,-2.9375 -1.01393,-5 -0.34277,-2.0625 -0.94034,-3.73596 -1.32791,-3.71879 -0.38758,0.0172 -2.47051,1.11608 -4.62873,2.44204 -4.460537,2.74045 -6.95092,2.15325 -7.962566,-1.87747 -0.859062,-3.42278 0.537071,-6.41202 5.268682,-11.2807 3.171854,-3.26373 5.066264,-4.33475 8.606294,-4.86561 11.45837,-1.71829 18.43449,8.46715 12.44113,18.1646 -3.52003,5.69553 -10.36701,9.38636 -11.38297,6.13593 z M 404.5,370 c -0.83704,-1.35436 0.29243,-3 2.05902,-3 0.79254,0 1.44098,0.9 1.44098,2 0,2.07031 -2.41251,2.7596 -3.5,1 z m 15.7026,-12.68967 C 418.85,354.684 419.80608,353 422.64976,353 c 2.11722,0 2.43646,0.40393 2.16666,2.74145 -0.37349,3.23593 -3.25129,4.2145 -4.61382,1.56888 z M 86.440693,352.90404 c -0.372538,-0.60278 -0.0616,-1.71151 0.690983,-2.46384 1.734763,-1.73419 4.397948,-0.26276 3.545426,1.95888 -0.702805,1.83148 -3.230377,2.13275 -4.236409,0.50496 z M 425.5,285 c -1.07686,-1.74239 0.51929,-3.22888 2.07802,-1.93525 0.76998,0.63902 1.15336,1.56088 0.85195,2.04856 C 427.70049,286.29363 426.2652,286.23812 425.5,285 Z m 6.64565,-2.25435 c -0.76933,-0.76933 -0.78392,-1.47658 -0.0487,-2.36242 C 433.33517,278.89122 436,279.65369 436,281.5 c 0,1.77079 -2.51607,2.58393 -3.85435,1.24565 z M 124.86932,149.09526 c -1.51534,-1.22704 -1.92918,-2.33129 -1.4452,-3.85618 1.16831,-3.68101 6.67145,-4.03838 8.02124,-0.52088 1.66889,4.34907 -2.87531,7.37373 -6.57604,4.37706 z m -12.17547,-6.73474 C 111.76061,141.42728 112.88837,140 114.55902,140 c 0.79254,0 1.44098,0.675 1.44098,1.5 0,1.50623 -2.11099,2.05568 -3.30615,0.86052 z M 350,121.24845 c -2.00159,-0.99991 -4.35623,-3.3541 -5.5,-5.49893 l -2,-3.75049 2.5,-4.74951 c 2.24213,-4.25962 2.85446,-4.74952 5.93643,-4.74952 3.06586,0 3.53105,0.36511 4.31379,3.38582 l 0.87735,3.38582 2.79252,-3.34498 c 2.7641,-3.31095 2.81941,-3.32736 5.43621,-1.61277 5.54458,3.63295 1.40527,13.79865 -7.05856,17.33507 -3.93198,1.64288 -3.11787,1.68756 -7.29774,-0.40051 z m -216.42439,-3.7464 c 0.6129,-3.13045 1.14416,-4.12187 1.83196,-3.41872 0.22416,0.22917 -0.2284,1.76667 -1.00568,3.41667 l -1.41324,3 z m 197.85145,-3.26736 c -3.50257,-2.39836 -1.54541,-7.66888 2.62897,-7.07966 1.85014,0.26115 2.52417,1.04754 2.77405,3.23646 0.42447,3.71846 -2.52318,5.81514 -5.40302,3.8432 z M 378.18045,111.75 c 0.17575,-1.2375 0.99455,-2.25 1.81955,-2.25 0.825,0 1.6438,1.0125 1.81955,2.25 0.24594,1.73169 -0.17321,2.25 -1.81955,2.25 -1.64634,0 -2.06549,-0.51831 -1.81955,-2.25 z M 334.33583,99.432783 c -0.83346,-2.171962 1.28244,-4.214515 2.79695,-2.7 C 338.41282,98.012816 337.61983,101 336,101 c -0.58452,0 -1.3334,-0.70525 -1.66417,-1.567217 z"
       id="path1" />
    <path
       style="fill:#087b7c;fill-opacity:1;stroke-width:1.01789;paint-order:markers fill stroke"
       d="m 332.89093,432.43193 c -7.83138,-1.11828 -18.94666,-4.73246 -29.38035,-9.55312 -8.31174,-3.84026 -10.3575,-4.24814 -10.3575,-2.06502 0,1.70264 -1.83612,2.482 -4.32604,1.83621 -1.24538,-0.32299 -1.78131,-1.47727 -1.78131,-3.83659 0,-2.52409 -0.70549,-3.87223 -2.79921,-5.34914 -5.27398,-3.72026 -13.99605,-7.6338 -17.60023,-7.89712 -1.9823,-0.14482 -5.18867,-1.17905 -7.12525,-2.29827 -3.93353,-2.27336 -11.16526,-3.81707 -21.90809,-4.67657 -7.17405,-0.57398 -7.19797,-0.56729 -10.63307,2.97684 -1.89356,1.95366 -3.97615,3.55212 -4.62797,3.55212 -0.65182,0 -2.80499,1.09928 -4.78482,2.44282 -5.50119,3.73322 -7.88121,4.24579 -7.88121,1.69735 0,-1.15742 -0.21532,-2.10438 -0.4785,-2.10438 -0.26317,0 -3.24051,1.40355 -6.6163,3.119 -6.24407,3.17301 -7.5351,5.30481 -4.53927,7.49542 1.30085,0.9512 -0.26297,1.68514 -8.39761,3.94121 -12.09873,3.35547 -15.16247,3.4929 -15.88949,0.71276 -0.47903,-1.83181 -1.38842,-2.03579 -9.07617,-2.03579 -4.78538,0 -9.02969,0.48588 -9.64832,1.10452 -1.93564,1.93563 -8.46368,-2.45672 -8.46368,-5.69474 0,-0.19368 2.51929,-0.0921 5.59841,0.22566 3.07913,0.31779 5.59841,0.29241 5.59841,-0.0564 0,-0.83814 -8.66686,-5.1553 -13.4729,-6.71116 -4.34137,-1.40542 -5.57964,-2.79506 -3.94616,-4.42854 1.80726,-1.80726 1.36052,-3.4973 -2.35057,-8.89226 -4.29738,-6.2473 -6.04707,-11.33585 -5.35439,-15.57194 0.29099,-1.77956 0.68083,-4.15168 0.86631,-5.27136 0.27641,-1.66862 -0.1792,-1.99964 -2.5262,-1.83536 -3.92418,0.27468 -3.37186,-3.11984 0.58188,-3.57619 3.24255,-0.37425 3.68931,-2.68788 0.81598,-4.22564 -1.29954,-0.6955 -2.08245,-2.36055 -2.29026,-4.8708 -0.21157,-2.55572 -0.81948,-3.82295 -1.84258,-3.84098 -0.83976,-0.0148 -2.13992,-0.41042 -2.88924,-0.87914 -1.04615,-0.65441 -0.82853,-1.12072 0.93751,-2.00889 1.26495,-0.63615 2.46246,-1.65028 2.66113,-2.25361 0.44092,-1.33902 -4.86348,-3.91584 -5.7066,-2.77221 -0.76085,1.03205 -9.25638,1.07987 -9.25461,0.0521 0.002,-0.91133 -4.67201,-0.98353 -7.88735,-0.12185 -1.32756,0.35577 -2.29026,1.40454 -2.29026,2.49502 0,1.03469 -0.95421,2.39193 -2.12046,3.01609 -3.128245,1.67419 -6.132126,-1.27941 -5.338235,-5.24887 0.502153,-2.51075 0.269055,-2.93959 -1.597845,-2.93959 -3.09615,0 -10.999568,-7.64169 -14.737557,-14.24951 -1.742145,-3.07967 -3.060739,-5.92824 -2.930208,-6.33016 0.130529,-0.40193 -0.425275,-4.19387 -1.235121,-8.42656 -0.945898,-4.94376 -1.147078,-8.50444 -0.562582,-9.9571 0.748792,-1.86101 0.921288,-1.93277 0.974386,-0.40538 0.04178,1.20178 0.690823,1.73533 1.841384,1.51376 1.345937,-0.25921 1.960278,-1.82019 2.533142,-6.43646 1.806279,-14.55546 2.980581,-20.11032 5.662465,-26.78544 2.425475,-6.03694 3.112151,-6.95568 4.583353,-6.13235 2.737247,1.53183 2.097812,-0.6793 -1.323219,-4.57565 -1.679523,-1.91286 -3.053678,-3.85771 -3.053678,-4.32188 0,-0.46415 -3.185916,-3.93037 -7.079811,-7.70268 -6.274849,-6.07893 -16.484893,-18.53132 -20.199825,-24.63614 -1.839917,-3.02357 -0.666713,-17.71932 1.943188,-24.3407 1.111344,-2.8195 1.790757,-5.7254 1.509805,-6.45754 -0.280951,-0.73215 0.894467,-2.33184 2.612041,-3.55485 1.717574,-1.22302 3.747792,-3.71934 4.511596,-5.54739 0.763804,-1.82804 3.345779,-4.65511 5.73772,-6.28236 2.39194,-1.62726 6.566223,-4.5295 9.276184,-6.44943 l 4.927199,-3.49077 -2.891414,-0.52623 -2.891415,-0.52623 3.053678,-1.11839 c 6.210121,-2.27442 11.619268,-3.17604 12.025993,-2.00454 0.239061,0.68857 3.162356,-0.25398 7.570416,-2.44091 6.24302,-3.09729 7.11293,-3.86177 6.66006,-5.85288 -0.29815,-1.31089 -0.0384,-2.29026 0.60734,-2.29026 0.62053,0 1.12824,0.68707 1.12824,1.52684 0,2.02868 1.46551,1.92967 8.97504,-0.60633 4.88574,-1.64994 7.12105,-3.11483 9.86762,-6.46666 3.7018,-4.51756 4.2242,-6.8011 2.55828,-11.18282 -0.69904,-1.83862 -0.65575,-2.61099 0.14635,-2.61099 0.80162,0 0.93825,-2.40767 0.46122,-8.12769 -0.61796,-7.40991 -0.46701,-8.46614 1.70933,-11.96023 3.24537,-5.21042 4.03664,-7.61627 2.7637,-8.40298 -1.02893,-0.63592 4.73781,-4.97664 13.3624,-10.058097 11.86324,-6.989618 35.10005,-8.158793 42.60536,-2.143716 1.39961,1.121702 3.99772,2.788352 5.77358,3.703673 1.77586,0.91531 3.44622,2.49545 3.7119,3.51141 0.49521,1.89371 7.11782,5.41319 12.18637,6.47627 1.56246,0.32771 2.56604,1.04045 2.23019,1.58388 -1.6747,2.70973 2.75954,0.45093 6.8967,-3.51316 2.58375,-2.47568 5.75508,-4.65142 7.04739,-4.83499 1.39346,-0.19795 2.97324,-1.57648 3.88198,-3.38745 2.3871,-4.757095 14.82307,-16.234249 20.94865,-19.333515 5.45897,-2.761986 5.63786,-2.782041 13.67005,-1.532534 6.23004,0.969162 8.47585,0.986256 9.57638,0.07289 1.10702,-0.918747 2.21904,-0.864279 4.83479,0.236814 4.72005,1.986892 16.92265,9.846985 15.30553,9.858796 -1.93172,0.01411 3.54819,6.8436 7.82083,9.746933 4.05824,2.757646 5.41579,2.464046 2.66437,-0.57623 -1.01951,-1.126546 -1.59804,-2.303886 -1.28561,-2.616308 0.74301,-0.743012 12.35749,13.038424 15.86261,18.822144 3.61736,5.96894 9.70349,12.29516 11.82853,12.29516 0.98868,0 1.41365,-0.4741 1.01018,-1.12694 -0.83672,-1.35383 1.41688,-0.74187 10.63612,2.88823 6.19511,2.43934 6.65644,2.48231 9.92343,0.92439 2.06647,-0.98543 4.67473,-3.66288 6.572,-6.74633 1.73014,-2.81185 4.10955,-5.78755 5.28756,-6.61266 1.90712,-1.3358 2.34905,-1.3127 4.03241,0.21072 1.38877,1.25682 3.83546,1.72414 9.21842,1.76071 5.86788,0.0399 8.46369,0.60759 13.02864,2.84944 14.01973,6.88509 18.93187,13.1413 20.12493,25.63161 0.40048,4.1926 0.93722,7.81813 1.19276,8.05674 0.25556,0.2386 4.01454,2.10991 8.35331,4.15845 4.33877,2.04854 7.88867,4.2877 7.88867,4.9759 0,0.6882 2.04269,3.17352 4.53933,5.52295 5.61961,5.28826 7.01648,7.9492 9.7902,18.6498 3.42634,13.21828 2.5776,21.54281 -3.4723,34.05659 -2.61578,5.41057 -6.58681,12.44742 -8.82449,15.63747 -2.2377,3.19004 -4.06853,6.31458 -4.06853,6.9434 0,0.62882 -0.40072,1.296 -0.89049,1.48262 -0.48977,0.18661 -3.20895,4.00371 -6.04263,8.48244 -2.83367,4.47872 -6.38847,9.65123 -7.89955,11.49445 -2.47168,3.01497 -2.68893,3.91795 -2.16467,8.99751 0.3205,3.1054 1.64223,7.78101 2.93716,10.39024 2.13142,4.2947 2.69186,4.74404 5.91704,4.74404 5.16824,0 6.28765,1.05754 5.50957,5.20504 -0.55095,2.93678 -0.0772,4.39822 2.86142,8.82719 1.93691,2.91926 4.10659,7.08267 4.82151,9.25203 3.699,11.22445 -4.37517,25.19964 -19.8088,34.28608 -5.24707,3.08917 -6.17905,4.09098 -6.6163,7.11207 -0.52855,3.65184 -1.20501,3.90317 -7.6342,2.83632 -1.53564,-0.25483 -2.61496,0.78751 -4.39329,4.2427 -2.10482,4.08956 -2.32013,5.70254 -2.00879,15.04878 0.33998,10.20566 0.42466,10.5295 3.37541,12.90967 2.50833,2.0233 2.83477,2.7582 1.90611,4.29119 -0.61631,1.01737 -2.29107,1.99056 -3.72171,2.16264 -2.06656,0.24858 -3.36976,1.77558 -6.34115,7.43013 -2.057,3.91449 -6.50557,10.07365 -9.88569,13.68701 -12.50573,13.36866 -28.99303,17.91629 -52.68807,14.53273 z M 206.66107,345.56234 c 6.86049,-4.74217 9.83299,-10.27848 10.53402,-19.61968 1.3101,-17.45696 1.71348,-40.4656 0.73493,-41.91992 -0.85463,-1.27015 -2.0915,-0.97136 -8.18804,1.97796 l -7.18134,3.4741 -0.0243,16.34411 c -0.0134,8.98927 -0.44743,18.17632 -0.9646,20.41568 -1.73034,7.49233 -7.9997,10.3805 -16.2727,7.49652 -4.31248,-1.50334 -5.23761,-0.14479 -4.88705,7.17653 0.25282,5.27959 0.41416,5.56823 3.82657,6.84501 2.01268,0.75307 6.70803,1.22819 10.79253,1.09208 6.14417,-0.20475 7.89066,-0.69767 11.62997,-3.28239 z m 191.33495,-49.35558 c 0,-21.28286 -0.36589,-33.59046 -0.99862,-33.59046 -0.54923,0 -3.98462,1.47247 -7.63419,3.27215 l -6.63558,3.27215 v 30.31831 30.31831 h 7.6342 7.63419 z m -226.90998,30.2078 c 12.27988,-6.49376 13.59483,-28.13961 2.33893,-38.50163 -9.90265,-9.11623 -16.2783,-9.19476 -25.76893,-0.31738 -6.67416,6.24289 -8.31785,10.01775 -8.31785,19.10261 0,8.15387 1.14684,12.18797 4.50695,15.85362 5.86957,6.40327 18.93363,8.25577 27.2409,3.86278 z m 128.49505,-1.4053 7.95487,-3.18881 5.18554,3.22497 c 5.04332,3.1365 5.55973,3.23472 18.82818,3.58082 16.70661,0.4358 19.6741,-0.0779 24.39534,-4.22316 7.24899,-6.36462 7.87822,-9.22174 8.28334,-37.61183 0.19773,-13.85606 0.0404,-25.19284 -0.34969,-25.19284 -0.39004,0 -3.86339,1.71769 -7.71852,3.8171 l -7.00935,3.81709 -0.0879,5.59841 c -0.0483,3.07913 -0.40153,12.34492 -0.78492,20.59067 -0.89277,19.20109 -0.34278,18.55251 -15.50614,18.28571 -6.22408,-0.10951 -11.69271,-0.43162 -12.15251,-0.71579 -0.45982,-0.28418 -0.15134,-1.88914 0.68548,-3.56659 2.45661,-4.92439 0.31402,-9.41887 -8.78458,-18.42732 -9.10892,-9.01864 -12.35831,-10.43016 -22.79725,-9.90301 -6.22547,0.31436 -8.13256,0.88409 -12.63874,3.7757 l -5.30695,3.40546 v 7.01914 c 0,3.86052 0.27282,7.01914 0.60628,7.01914 0.33347,0 1.82213,-0.83479 3.30815,-1.85508 1.48603,-1.0203 5.16759,-2.89146 8.18125,-4.15814 5.23678,-2.20108 5.66789,-2.23105 9.73698,-0.67706 2.34168,0.89429 5.83062,3.25554 7.75322,5.2472 3.43426,3.55764 3.45989,3.6488 1.45984,5.19283 -4.18271,3.22904 -12.50154,6.40665 -19.37154,7.39948 -8.32652,1.20332 -25.90207,1.37229 -27.64231,0.26576 -2.71191,-1.72438 -3.3723,-7.08817 -3.38742,-27.51307 -0.009,-11.70382 -0.45015,-21.73313 -0.99405,-22.58185 -0.83628,-1.30496 -1.94338,-1.02997 -7.61861,1.89239 l -6.64014,3.41922 V 292.18 c 0,12.7788 0.40711,24.30499 0.9047,25.61375 1.30342,3.42825 7.17212,8.85063 10.76901,9.94998 1.69715,0.51872 12.01774,0.83316 22.93464,0.69873 19.60716,-0.24141 19.94579,-0.28323 27.80375,-3.4332 z M 92.628231,272.8553 c 0,-0.5268 -0.458052,-1.24091 -1.017893,-1.58691 -0.559841,-0.346 -1.017893,0.085 -1.017893,0.95782 0,0.8728 0.458052,1.58691 1.017893,1.58691 0.559841,0 1.017893,-0.43102 1.017893,-0.95782 z m 81.176939,-5.7975 c 2.98183,-3.27995 2.9056,-6.97237 -0.20821,-10.08617 -5.12683,-5.12684 -12.76992,-1.63322 -12.76992,5.83706 0,3.31817 0.49957,4.21292 3.30474,5.91884 3.8407,2.33567 6.43991,1.88702 9.67339,-1.66973 z m -17.39864,0.0715 c 6.54673,-6.54673 -2.94935,-16.44534 -10.62139,-11.07163 -1.68742,1.18192 -2.26228,2.60452 -2.26228,5.59841 0,7.66346 7.50512,10.85178 12.88367,5.47322 z m 48.20724,-40.77459 c 11.54084,-6.48382 13.46263,-11.64284 13.60328,-36.51777 0.0693,-12.25686 -0.11114,-13.56746 -2.44686,-17.77373 -3.80683,-6.85548 -7.97339,-9.20043 -16.34749,-9.20043 -7.70957,0 -11.4947,1.10664 -15.02872,4.39385 -5.8992,5.48721 -8.69995,17.15181 -6.27292,26.12543 2.29484,8.48485 11.51195,15.26242 20.78024,15.28021 2.87439,0.006 2.90643,0.0615 1.14771,2.00488 -4.76122,5.26109 -19.07606,6.68269 -26.8438,2.66584 -5.66919,-2.93165 -7.46189,-7.0225 -6.95099,-15.86186 0.24268,-4.1988 0.78591,-8.69718 1.20718,-9.99637 0.73525,-2.26755 0.60751,-2.33375 -3.18868,-1.65232 -6.16197,1.10609 -10.28734,3.11619 -11.71808,5.70964 -0.75222,1.36351 -1.32489,5.84732 -1.34356,10.51957 -0.0259,6.48014 0.42496,9.00259 2.20766,12.35157 3.08235,5.79048 7.94273,10.40719 14.00328,13.30121 4.72653,2.25701 6.10697,2.41588 18.36073,2.11315 12.61979,-0.31177 13.51537,-0.47645 18.83102,-3.46287 z m 58.61276,1.25212 c 5.53244,-2.5761 8.56173,-6.01567 10.46174,-11.87871 l 1.17561,-3.6277 14.48854,-1.24271 c 16.10803,-1.3816 14.69885,-1.35691 32.36956,-0.56739 9.7487,0.43556 13.62289,0.22973 16.28628,-0.86526 3.03356,-1.24717 3.96485,-1.23727 7.05735,0.075 5.22991,2.21932 24.92791,2.22131 29.00994,0.003 4.11562,-2.23666 7.22188,-5.70701 9.07232,-10.13575 2.12602,-5.08827 3.46473,-32.8169 1.63885,-33.94535 -0.76111,-0.47039 -4.12153,0.57352 -8.20446,2.54872 l -6.91535,3.34543 -0.34041,10.99343 c -0.21379,6.90419 -0.80497,11.45702 -1.58931,12.23974 -0.7098,0.70833 -4.09924,1.27842 -7.85208,1.32069 -9.6384,0.10854 -10.04765,-0.51877 -10.56976,-16.2017 -0.23316,-7.00363 -0.71218,-12.721 -1.06447,-12.70526 -0.3523,0.0157 -3.38885,1.50441 -6.7479,3.30815 l -6.10735,3.27954 -1.04992,10.38059 c -0.57745,5.70933 -1.39701,10.72769 -1.82122,11.15192 -0.42423,0.42421 -4.01143,0.77131 -7.97155,0.77131 -9.61391,0 -10.02411,-0.60826 -10.02411,-14.86418 0,-12.90298 -0.0409,-12.93506 -9.66998,-7.58405 l -6.10736,3.39394 -0.27387,8.04522 c -0.36906,10.84129 -1.28926,11.60783 -13.93471,11.60783 h -9.40253 l -0.66598,-10.8847 c -0.80526,-13.16098 -2.47743,-17.03754 -8.78888,-20.37512 -3.36072,-1.77719 -6.07328,-2.33064 -11.423,-2.33064 -8.03259,0 -11.31814,1.35333 -15.86901,6.53649 -7.56418,8.61512 -7.06539,26.51186 0.94414,33.87502 3.00147,2.75926 10.23184,6.00359 15.57275,6.98763 l 3.99986,0.73696 -3.36095,3.00301 c -3.04982,2.72501 -3.79703,2.93762 -8.07143,2.29669 -2.59077,-0.38846 -5.48197,-1.11915 -6.42488,-1.62374 -0.94291,-0.50458 -2.20256,-0.91742 -2.79921,-0.91742 -1.22857,0 -1.49252,11.05731 -0.3058,12.81064 1.65236,2.44129 5.18186,3.41473 12.4536,3.43474 5.93059,0.0163 8.79253,-0.51835 12.82494,-2.39597 z m -67.53667,-74.02091 c 3.94041,-4.74598 0.20524,-13.11678 -5.85288,-13.11678 -3.66391,0 -7.6342,4.23498 -7.6342,8.14315 0,4.6834 4.23824,8.56104 8.46509,7.74487 1.78237,-0.34417 4.04227,-1.59123 5.02199,-2.77124 z m 16.45637,1.01824 c 5.75999,-4.53081 1.05033,-15.49231 -5.90619,-13.74633 -7.50685,1.8841 -9.12094,12.1407 -2.3405,14.8726 3.52762,1.42131 5.319,1.17666 8.24669,-1.12627 z"
       id="path2" />
    <path
       style="fill:#087b7c;fill-opacity:1;stroke-width:1.01789;paint-order:markers fill stroke"
       d="m 108.92305,379.18746 c -0.56454,-1.48484 -1.02643,-3.55896 -1.02643,-4.60916 0,-3.05433 -1.58217,-3.24141 -6.63831,-0.78495 -4.710457,2.28852 -4.743117,2.28996 -6.219146,0.27351 -2.242368,-3.06337 -0.87458,-6.55971 4.675522,-11.95155 4.630254,-4.49823 5.342114,-4.83499 10.220344,-4.83499 4.43819,0 5.70037,0.45693 8.21882,2.97538 5.45596,5.45596 3.0667,15.04881 -4.90822,19.70641 l -3.29615,1.92506 z"
       id="path3" />
    <path
       style="fill:#087b7c;fill-opacity:1;stroke-width:1.01789;paint-order:markers fill stroke"
       d="m 415.68527,387.34767 c -1.74765,-0.74704 -3.9234,-2.4231 -4.83499,-3.72458 -3.71997,-5.311 -0.70187,-16.04742 5.13487,-18.26655 4.07951,-1.55102 5.4224,-0.53401 5.4224,4.10654 0,4.45672 0.49698,4.81772 3.50271,2.54431 1.08672,-0.82196 2.77117,-1.49447 3.74321,-1.49447 2.39983,0 6.02804,4.78844 5.25523,6.93574 -2.83212,7.86926 -11.70121,12.68697 -18.22343,9.89901 z"
       id="path4" />
    <path
       style="fill:#087b7c;fill-opacity:1;stroke-width:1.01789;paint-order:markers fill stroke"
       d="m 252.80797,194.24487 c -4.90375,-2.37444 -6.04342,-11.55126 -1.9437,-15.65098 2.89711,-2.89711 3.54155,-3.00749 6.20189,-1.0622 1.59527,1.16649 2.03443,2.98275 2.33811,9.66998 0.36744,8.09126 0.33242,8.23253 -2.02412,8.16483 -1.31893,-0.0379 -3.3764,-0.54263 -4.57218,-1.12163 z"
       id="path5" />
    <path
       style="fill:#087b7c;fill-opacity:1;stroke-width:1.01789;paint-order:markers fill stroke"
       d="m 349.75303,120.19105 c -1.62073,-1.06845 -3.82506,-3.3298 -4.89851,-5.0252 -1.94379,-3.07001 -1.94216,-3.09946 0.40204,-7.23862 2.76167,-4.87628 6.51797,-6.42281 8.61951,-3.54878 0.75265,1.02932 1.36846,2.70004 1.36846,3.71272 0,2.55421 0.60738,2.3328 3.99198,-1.45522 2.91279,-3.25998 2.96895,-3.27513 5.07511,-1.36908 3.87535,3.50714 1.7627,9.89177 -4.7339,14.30632 -4.53193,3.07953 -5.95489,3.16901 -9.82469,0.61786 z"
       id="path6" />
    <path
       style="fill:#087b7c;fill-opacity:1;stroke-width:1.01789;paint-order:markers fill stroke"
       d="m 326.74354,430.57098 c -4.19881,-1.03729 -12.21471,-3.80135 -17.81312,-6.14234 -13.04904,-5.45651 -14.73627,-5.82195 -16.3965,-3.55144 -1.75437,2.39925 -4.24511,1.3094 -5.08563,-2.22526 -0.37179,-1.56354 -1.41606,-3.6939 -2.32059,-4.73413 -2.27969,-2.62171 -10.64282,-6.7657 -17.93088,-8.8849 -3.35905,-0.97673 -8.07437,-2.50629 -10.47849,-3.39901 -4.89603,-1.81805 -15.80734,-3.58714 -22.31313,-3.61771 -3.2599,-0.0153 -5.09385,0.67102 -7.63419,2.85705 -1.83897,1.58247 -6.04511,4.40315 -9.34698,6.26818 -5.79839,3.27516 -6.05166,3.32499 -7.41609,1.45902 -1.36895,-1.87214 -1.59279,-1.83772 -7.2292,1.11154 -5.0854,2.66093 -5.82067,3.42732 -5.84956,6.09717 -0.0302,2.78777 -0.51767,3.21381 -5.59841,4.89273 -3.06095,1.01148 -7.96031,2.10517 -10.88747,2.43041 -4.42965,0.49219 -5.43429,0.29898 -5.99118,-1.15224 -0.58651,-1.52844 -2.08295,-1.7075 -12.12653,-1.45106 -8.41425,0.21484 -11.89223,-0.0683 -13.09431,-1.06593 -2.77324,-2.30157 -1.84734,-3.14497 3.45262,-3.14497 2.7992,0 5.08946,-0.3955 5.08946,-0.87889 0,-0.80241 -7.63416,-4.57962 -14.486,-7.16734 -2.42454,-0.91565 -2.70073,-1.44756 -2.15876,-4.15742 0.49629,-2.48145 -0.17395,-4.3847 -3.32711,-9.44791 -3.65265,-5.86525 -3.95193,-6.91268 -3.99294,-13.97468 -0.0411,-7.07941 -0.20755,-7.65783 -2.29026,-7.95946 -3.0081,-0.43565 -2.84813,-1.84763 0.29881,-2.63745 3.07021,-0.77058 3.26379,-2.93453 0.50894,-5.68937 -1.11968,-1.11969 -2.03578,-3.2238 -2.03578,-4.67582 0,-1.78397 -0.66012,-2.81265 -2.03579,-3.17239 -2.40398,-0.62866 -2.66435,-2.15341 -0.50894,-2.98051 1.80758,-0.69364 2.01298,-3.00118 0.35817,-4.0239 -0.64277,-0.39726 -6.13076,-0.87627 -12.19555,-1.06448 l -11.02689,-0.34219 -1.57214,3.04018 c -2.45758,4.75244 -6.609319,3.38036 -6.609319,-2.18427 0,-1.9361 -0.652956,-2.98874 -2.148308,-3.46336 -3.283002,-1.04197 -9.551435,-7.12668 -13.201063,-12.81413 -2.398197,-3.73727 -3.641281,-7.34251 -4.6318,-13.43336 -1.81872,-11.18354 -1.789713,-11.80051 0.526333,-11.19484 1.056499,0.27628 2.195785,0.0576 2.531748,-0.48603 0.335963,-0.54361 1.349225,-5.96562 2.251695,-12.04892 2.322222,-15.65349 6.373607,-27.22395 9.158276,-26.15536 0.792852,0.30423 1.441549,0.002 1.441549,-0.67097 0,-1.89117 -3.74259,-6.7669 -13.291481,-17.31574 -4.814338,-5.31849 -11.351109,-13.03818 -14.526159,-17.15489 -5.48408,-7.11055 -5.772818,-7.77817 -5.772818,-13.34814 0,-12.18728 3.450938,-23.81661 8.906561,-30.01427 2.379324,-2.70294 4.326044,-5.24012 4.326044,-5.63816 0,-0.39804 3.876576,-3.42541 8.614612,-6.72747 8.825636,-6.15081 10.021253,-7.46851 6.908251,-7.61362 -3.675425,-0.17132 4.961851,-2.9762 10.344929,-3.35943 6.48333,-0.46154 13.69491,-4.05557 15.56852,-7.75887 0.70684,-1.39712 1.29192,-1.90911 1.30017,-1.13776 0.0114,1.07029 1.00149,1.24472 4.17999,0.73646 5.73759,-0.91748 11.22134,-3.89884 14.92033,-8.11176 l 3.11523,-3.54805 0.0899,-13.41116 c 0.077,-11.49233 0.38653,-13.94241 2.16327,-17.12424 1.14037,-2.0422 2.42376,-5.08725 2.85197,-6.76677 0.57521,-2.25609 2.62755,-4.30019 7.85772,-7.82614 10.17058,-6.856581 15.85342,-8.46014 29.98175,-8.46014 11.00379,0 11.99823,0.171916 16.58289,2.866811 2.68243,1.576745 7.08606,4.828649 9.78586,7.226449 2.79826,2.48525 6.92313,4.95442 9.59408,5.74305 2.57695,0.76089 4.81506,2.009 4.97358,2.7736 0.21062,1.0158 1.24764,0.68889 3.85086,-1.21396 1.95945,-1.43226 5.85289,-4.17548 8.65209,-6.09603 2.79921,-1.92055 6.65616,-5.477736 8.57103,-7.904861 4.1439,-5.252465 13.89483,-13.773625 18.60218,-16.256094 2.78069,-1.466426 5.42949,-1.71107 15.28513,-1.411744 10.71711,0.325489 12.44362,0.646205 17.08873,3.174391 5.37336,2.924553 6.37002,3.810046 13.4255,11.928056 4.90926,5.648582 7.85194,7.592132 8.90796,5.883452 0.69352,-1.122151 7.5382,6.78827 14.00831,16.18946 4.85712,7.05749 8.95486,10.54926 11.57571,9.8639 1.2441,-0.32534 5.14942,0.51554 8.83208,1.90168 3.63099,1.36671 7.74629,2.48492 9.14511,2.48492 2.55759,0 6.57411,-3.59342 12.99166,-11.62309 3.03165,-3.79323 3.07571,-3.80918 6.10736,-2.21247 1.79311,0.94439 5.57481,1.61123 9.16103,1.61538 4.67112,0.005 7.63462,0.72959 12.60178,3.07943 13.40809,6.34305 17.8327,11.99594 19.86866,25.38414 l 1.16746,7.67709 7.20772,3.78979 c 7.33914,3.85889 16.49957,12.86828 19.9966,19.66688 2.73978,5.32643 5.01951,15.94507 5.01655,23.36639 -0.004,9.95888 -4.99315,22.50779 -14.64185,36.82754 -1.57686,2.34023 -2.86702,4.48653 -2.86702,4.76957 0,0.6372 -13.92606,20.90926 -15.88194,23.11922 -2.95217,3.33568 -0.59524,18.97363 3.40262,22.57592 0.9853,0.88781 3.39463,1.76452 5.35407,1.94825 3.46459,0.32486 3.57795,0.47409 4.11938,5.42352 0.36126,3.30243 1.76605,7.02086 4.00082,10.59009 8.29359,13.24595 3.65542,26.51291 -13.46239,38.50767 -5.53915,3.88139 -8.39617,6.63534 -9.41612,9.07643 -1.33912,3.20495 -1.78706,3.47852 -5.24248,3.20187 -3.30843,-0.26488 -4.07185,0.12758 -6.13923,3.15617 -2.10931,3.09002 -2.36097,4.62782 -2.36097,14.42688 0,10.21434 0.1749,11.17604 2.54473,13.99243 3.29499,3.91587 3.20789,5.14982 -0.45363,6.42623 -2.12586,0.74108 -4.36676,3.24073 -7.70081,8.58999 -9.24903,14.83947 -19.21915,22.98898 -32.4273,26.5059 -7.56271,2.01372 -25.89896,1.69205 -35.25126,-0.61839 z M 204.14771,347.51354 c 1.88186,-0.89301 5.21965,-3.57432 7.41728,-5.95847 5.33787,-5.79092 6.2277,-10.42972 6.98479,-36.41279 0.72328,-24.82248 0.91865,-24.41739 -9.33721,-19.35999 l -6.33074,3.12182 -0.66492,11.53999 c -0.36569,6.347 -0.66699,14.41753 -0.66954,17.93452 -0.005,7.3512 -1.9136,12.77012 -5.09696,14.47381 -1.26528,0.67715 -5.1118,1.03875 -8.99274,0.84535 l -6.78173,-0.33794 v 6.58624 c 0,6.00341 0.22519,6.70017 2.54474,7.87367 3.68283,1.8632 16.75851,1.67187 20.92703,-0.30621 z m 193.84831,-51.30678 c 0,-29.45811 -0.1914,-33.59046 -1.55587,-33.59046 -0.85572,0 -4.29111,1.38075 -7.63419,3.06834 l -6.07833,3.06832 v 30.52214 30.52212 h 7.6342 7.63419 z m -224.72357,29.29209 c 5.84097,-4.45659 8.1949,-10.51657 7.76429,-19.98853 -0.30372,-6.6811 -0.84383,-8.71439 -3.41447,-12.85436 -4.15158,-6.68598 -11.5821,-11.71759 -17.30418,-11.71759 -8.62848,0 -19.8501,10.88753 -21.17356,20.54316 -0.87222,6.3636 0.79262,16.56637 3.27122,20.04724 3.71999,5.22426 9.57975,7.39764 19.00067,7.04736 7.12111,-0.26476 8.71054,-0.6773 11.85603,-3.07728 z m 127.08481,-0.10289 6.69524,-2.79993 6.00189,3.15718 6.0019,3.15718 16.39581,-0.32001 c 16.29748,-0.31808 16.41894,-0.33765 20.25087,-3.26327 7.40165,-5.65103 8.12142,-8.86132 8.52588,-38.02691 0.27028,-19.48969 0.0616,-25.70179 -0.86332,-25.70179 -2.8073,0 -13.4579,6.62564 -14.32757,8.91305 -0.50527,1.32896 -0.9422,7.76858 -0.97094,14.31027 -0.0633,14.39108 -1.17154,25.2307 -2.74008,26.79924 -1.59975,1.59975 -10.0503,2.27789 -17.90438,1.4368 l -6.55374,-0.70185 1.03911,-3.38573 c 1.61048,-5.24743 0.27527,-8.12869 -7.61736,-16.43759 -9.91422,-10.43709 -12.95458,-11.88053 -24.08689,-11.43554 -7.65124,0.30585 -9.37487,0.73748 -13.59253,3.40393 l -4.83017,3.05368 -0.002,7.37972 c -10e-4,4.05885 0.34171,7.37115 0.7616,7.36068 0.41988,-0.0105 3.91041,-1.61364 7.75673,-3.56262 3.84634,-1.94897 7.87254,-3.54358 8.94712,-3.54358 2.81931,0 9.09628,3.43362 12.03849,6.58528 l 2.53161,2.71183 -2.39659,1.80776 c -6.14043,4.63174 -14.24448,6.50349 -30.19347,6.97363 l -15.31214,0.45138 -1.14643,-2.51614 c -0.6551,-1.43779 -1.46378,-12.20864 -1.8869,-25.13154 -0.59824,-18.27148 -1.0225,-22.72361 -2.20879,-23.17883 -0.80758,-0.30989 -4.17577,0.7306 -7.48486,2.3122 l -6.01654,2.87565 v 25.09056 25.09057 l 3.30815,3.7191 c 5.99268,6.73711 6.85724,6.91797 31.3002,6.54737 21.20478,-0.32149 22.09269,-0.41879 28.57992,-3.13173 z M 92.628231,272.28628 c 0,-0.83976 -0.458052,-1.52684 -1.017893,-1.52684 -0.559841,0 -1.017893,0.68708 -1.017893,1.52684 0,0.83976 0.458052,1.52684 1.017893,1.52684 0.559841,0 1.017893,-0.68708 1.017893,-1.52684 z m 63.872759,-4.87494 c 5.10409,-4.67167 1.29763,-12.93818 -5.9576,-12.93818 -5.03536,0 -7.02053,2.13464 -7.02053,7.54914 0,8.02303 6.94814,10.90818 12.97813,5.38904 z m 16.85927,0.4932 c 5.16525,-5.39137 2.1265,-13.43138 -5.07646,-13.43138 -4.67309,0 -7.45676,3.01232 -7.45676,8.06926 0,3.1064 0.59796,4.46805 2.682,6.10736 3.65152,2.87229 6.59903,2.64931 9.85122,-0.74524 z m 32.8572,-42.07223 c 10.03232,-6.17721 12.5283,-13.63865 12.59803,-37.66041 0.0286,-9.86925 -0.21598,-11.29839 -2.76778,-16.16955 -3.76401,-7.18519 -7.51865,-9.13953 -17.55864,-9.13953 -9.58405,0 -13.63518,1.97363 -17.81313,8.67822 -2.81419,4.5161 -3.05367,5.63178 -3.05367,14.22622 0,8.54854 0.23682,9.66785 2.84147,13.42977 3.46744,5.00805 11.25959,9.45916 16.63624,9.50313 l 3.93382,0.0322 -2.78013,2.44734 c -4.97089,4.37585 -20.58906,4.89546 -26.01755,0.86559 -4.75642,-3.53095 -5.46642,-5.97161 -4.9414,-16.98638 l 0.47888,-10.04649 -3.83798,0.51478 c -2.11089,0.28313 -5.49788,1.30245 -7.52664,2.26517 -4.34236,2.06058 -5.75862,5.83474 -5.73284,15.27725 0.0278,10.1865 5.06344,18.45771 14.61779,24.01034 5.20261,3.02357 5.20444,3.02381 20.05673,2.73935 l 14.85364,-0.28448 z m 56.9499,2.29814 c 4.74239,-2.15418 8.94603,-6.74448 10.75332,-11.74242 0.85892,-2.37531 2.08967,-3.67717 3.88311,-4.10748 1.44409,-0.34648 14.99303,-0.87545 30.10873,-1.17549 15.11571,-0.30004 28.76648,-0.95557 30.33504,-1.45673 1.95947,-0.62606 4.82624,-0.40519 9.16103,0.70581 9.59883,2.46016 23.82792,1.48854 29.07758,-1.98553 6.83438,-4.52277 8.44434,-9.45734 9.05973,-27.76824 0.61261,-18.22818 0.97921,-17.73745 -9.53476,-12.76347 -6.0803,2.87649 -6.22115,3.03588 -6.87077,7.77546 -0.36478,2.66133 -0.66323,7.49043 -0.66323,10.73135 0,7.56739 -1.43016,9.09168 -8.53025,9.09168 -8.44992,0 -8.94404,-0.75439 -10.06919,-15.37321 -0.53418,-6.94036 -1.16306,-12.82441 -1.39752,-13.07566 -0.23446,-0.25125 -3.33352,0.9768 -6.88679,2.72899 l -6.46049,3.18582 -1.27606,10.5036 c -0.70184,5.77699 -1.78785,10.84014 -2.41338,11.25145 -1.60735,1.05691 -12.04427,0.93129 -13.7776,-0.16583 -1.64417,-1.04068 -2.95358,-8.79635 -3.06273,-18.14065 -0.0674,-5.77033 -0.27399,-6.36183 -2.22208,-6.36183 -1.18127,0 -4.84568,1.43797 -8.14314,3.1955 l -5.99537,3.19549 v 5.32936 c 0,7.514 -0.99577,11.60772 -3.09705,12.73228 -0.99562,0.53285 -5.69292,1.26725 -10.43844,1.63202 l -8.62823,0.66322 -0.58087,-4.97632 c -0.31948,-2.73698 -0.86398,-8.05195 -1.21,-11.81106 -1.15033,-12.49671 -6.63211,-17.08574 -20.4096,-17.08574 -7.50659,0 -8.63412,0.27045 -12.34998,2.96221 -5.96023,4.31757 -8.65715,10.55861 -8.65715,20.03385 0,13.34043 5.90938,20.70926 19.33348,24.10833 l 5.36574,1.35864 -2.53284,2.37947 c -2.58749,2.43083 -5.67996,2.52033 -15.06941,0.43615 l -2.7992,-0.62134 v 6.67725 c 0,5.74617 0.31544,6.89819 2.26227,8.2618 3.34775,2.34486 18.30628,2.13769 23.7361,-0.32873 z M 194.78917,154.6458 c 5.50105,-4.32712 2.15951,-14.17662 -4.80954,-14.17662 -6.90257,0 -10.4071,8.77479 -5.56363,13.93042 2.75353,2.931 6.83681,3.02791 10.37317,0.2462 z m 17.75846,0.0342 c 2.94664,-2.74521 3.02485,-8.89979 0.15228,-11.98312 -4.67274,-5.01561 -13.19295,-0.89654 -13.19295,6.37809 0,6.92978 7.95069,10.34707 13.04067,5.60503 z"
       id="path7" />
    <path
       style="fill:#087b7c;fill-opacity:1;stroke-width:0.0899699;paint-order:markers fill stroke"
       d="m 356.95538,130.68512 c -1.03817,-0.27202 -1.83378,-0.55701 -5.0833,-1.82087 -6.66442,-2.59204 -9.17739,-3.44548 -10.14692,-3.44605 -0.45507,-2.7e-4 -0.55819,0.15516 -0.38173,0.57535 0.1716,0.4086 0.16771,0.80835 -0.008,0.84346 -0.10232,0.0204 -0.16213,-0.0588 -0.20206,-0.26766 -0.045,-0.23528 -0.44527,-0.67834 -1.9344,-2.14105 -1.92434,-1.89021 -2.5755,-2.61959 -2.89134,-3.23869 -0.24352,-0.47734 -0.23193,-0.63001 0.0479,-0.63001 0.5213,0 1.64798,0.75885 2.98812,2.01259 2.42102,2.26493 4.45412,3.23952 9.22665,4.4229 3.65005,0.90505 5.97082,1.83065 6.92445,2.76169 1.00898,0.98508 2.34045,1.12188 4.61672,0.47432 1.03405,-0.29417 2.95811,-1.24908 3.80027,-1.88608 0.74579,-0.56411 0.88931,-0.6253 0.50573,-0.21565 -0.81772,0.87332 -2.71927,1.99282 -4.26405,2.51036 -1.02694,0.34406 -2.00492,0.35794 -3.19778,0.0454 z"
       id="path8" />
  </g>
</svg>
